<mxfile host="app.diagrams.net" modified="2024-03-23T09:45:05.833Z" agent="Mozilla/5.0 (Macintosh; Intel Mac OS X 10_15_7) AppleWebKit/537.36 (KHTML, like Gecko) Chrome/122.0.0.0 Safari/537.36" etag="PfJPf7uvjiEr0KNREW49" version="24.0.5" type="device">
  <diagram name="Page-1" id="V-0KAZuZVu4mU5nadRBS">
    <mxGraphModel dx="848" dy="698" grid="1" gridSize="10" guides="1" tooltips="1" connect="1" arrows="1" fold="1" page="1" pageScale="1" pageWidth="827" pageHeight="1169" math="0" shadow="0">
      <root>
        <mxCell id="0" />
        <mxCell id="1" parent="0" />
        <mxCell id="h_FFpLWz4QTEXTKvGINv-5" style="edgeStyle=orthogonalEdgeStyle;rounded=0;orthogonalLoop=1;jettySize=auto;html=1;exitX=0.5;exitY=0;exitDx=0;exitDy=0;shape=flexArrow;" edge="1" parent="1" source="h_FFpLWz4QTEXTKvGINv-1" target="h_FFpLWz4QTEXTKvGINv-2">
          <mxGeometry relative="1" as="geometry" />
        </mxCell>
        <mxCell id="h_FFpLWz4QTEXTKvGINv-16" style="edgeStyle=orthogonalEdgeStyle;rounded=0;orthogonalLoop=1;jettySize=auto;html=1;exitX=1;exitY=0.5;exitDx=0;exitDy=0;entryX=0;entryY=0.5;entryDx=0;entryDy=0;" edge="1" parent="1" source="h_FFpLWz4QTEXTKvGINv-1" target="h_FFpLWz4QTEXTKvGINv-9">
          <mxGeometry relative="1" as="geometry" />
        </mxCell>
        <mxCell id="h_FFpLWz4QTEXTKvGINv-1" value="原始用户微博内容" style="rounded=0;whiteSpace=wrap;html=1;" vertex="1" parent="1">
          <mxGeometry x="190" y="440" width="120" height="60" as="geometry" />
        </mxCell>
        <mxCell id="h_FFpLWz4QTEXTKvGINv-6" style="edgeStyle=orthogonalEdgeStyle;rounded=0;orthogonalLoop=1;jettySize=auto;html=1;exitX=0.5;exitY=0;exitDx=0;exitDy=0;shape=flexArrow;" edge="1" parent="1" source="h_FFpLWz4QTEXTKvGINv-2" target="h_FFpLWz4QTEXTKvGINv-3">
          <mxGeometry relative="1" as="geometry" />
        </mxCell>
        <mxCell id="h_FFpLWz4QTEXTKvGINv-15" style="edgeStyle=orthogonalEdgeStyle;rounded=0;orthogonalLoop=1;jettySize=auto;html=1;exitX=1;exitY=0.5;exitDx=0;exitDy=0;entryX=0;entryY=0.5;entryDx=0;entryDy=0;" edge="1" parent="1" source="h_FFpLWz4QTEXTKvGINv-2" target="h_FFpLWz4QTEXTKvGINv-10">
          <mxGeometry relative="1" as="geometry" />
        </mxCell>
        <mxCell id="h_FFpLWz4QTEXTKvGINv-2" value="发言内容分类" style="rounded=0;whiteSpace=wrap;html=1;" vertex="1" parent="1">
          <mxGeometry x="190" y="330" width="120" height="60" as="geometry" />
        </mxCell>
        <mxCell id="h_FFpLWz4QTEXTKvGINv-7" style="edgeStyle=orthogonalEdgeStyle;rounded=0;orthogonalLoop=1;jettySize=auto;html=1;exitX=0.5;exitY=0;exitDx=0;exitDy=0;entryX=0.5;entryY=1;entryDx=0;entryDy=0;shape=flexArrow;" edge="1" parent="1" source="h_FFpLWz4QTEXTKvGINv-3" target="h_FFpLWz4QTEXTKvGINv-4">
          <mxGeometry relative="1" as="geometry" />
        </mxCell>
        <mxCell id="h_FFpLWz4QTEXTKvGINv-14" style="edgeStyle=orthogonalEdgeStyle;rounded=0;orthogonalLoop=1;jettySize=auto;html=1;exitX=1;exitY=0.5;exitDx=0;exitDy=0;entryX=0;entryY=0.5;entryDx=0;entryDy=0;" edge="1" parent="1" source="h_FFpLWz4QTEXTKvGINv-3" target="h_FFpLWz4QTEXTKvGINv-11">
          <mxGeometry relative="1" as="geometry" />
        </mxCell>
        <mxCell id="h_FFpLWz4QTEXTKvGINv-3" value="多维度分析" style="rounded=0;whiteSpace=wrap;html=1;" vertex="1" parent="1">
          <mxGeometry x="190" y="230" width="120" height="60" as="geometry" />
        </mxCell>
        <mxCell id="h_FFpLWz4QTEXTKvGINv-13" style="edgeStyle=orthogonalEdgeStyle;rounded=0;orthogonalLoop=1;jettySize=auto;html=1;exitX=1;exitY=0.5;exitDx=0;exitDy=0;" edge="1" parent="1" source="h_FFpLWz4QTEXTKvGINv-4" target="h_FFpLWz4QTEXTKvGINv-12">
          <mxGeometry relative="1" as="geometry" />
        </mxCell>
        <mxCell id="h_FFpLWz4QTEXTKvGINv-4" value="结果整合与可视化" style="rounded=0;whiteSpace=wrap;html=1;" vertex="1" parent="1">
          <mxGeometry x="190" y="120" width="120" height="60" as="geometry" />
        </mxCell>
        <mxCell id="h_FFpLWz4QTEXTKvGINv-9" value="利用Github开源库" style="rounded=1;whiteSpace=wrap;html=1;" vertex="1" parent="1">
          <mxGeometry x="414" y="440" width="120" height="60" as="geometry" />
        </mxCell>
        <mxCell id="h_FFpLWz4QTEXTKvGINv-10" value="分为个人生活分享、观点和看法、情感表达、其它" style="rounded=1;whiteSpace=wrap;html=1;" vertex="1" parent="1">
          <mxGeometry x="414" y="330" width="120" height="60" as="geometry" />
        </mxCell>
        <mxCell id="h_FFpLWz4QTEXTKvGINv-11" value="根据用户输入的k值，不同的类别一次分析k条。" style="rounded=1;whiteSpace=wrap;html=1;" vertex="1" parent="1">
          <mxGeometry x="414" y="230" width="120" height="60" as="geometry" />
        </mxCell>
        <mxCell id="h_FFpLWz4QTEXTKvGINv-12" value="利用Plotly等可视化工具" style="rounded=1;whiteSpace=wrap;html=1;" vertex="1" parent="1">
          <mxGeometry x="414" y="120" width="120" height="60" as="geometry" />
        </mxCell>
      </root>
    </mxGraphModel>
  </diagram>
</mxfile>
